<?xml version="1.0" standalone="no"?>
<!DOCTYPE svg PUBLIC "-//W3C//DTD SVG 20010904//EN"
 "http://www.w3.org/TR/2001/REC-SVG-20010904/DTD/svg10.dtd">
<svg version="1.0" xmlns="http://www.w3.org/2000/svg"
 width="452.000000pt" height="286.000000pt" viewBox="0 0 452.000000 286.000000"
 preserveAspectRatio="xMidYMid meet">

<g transform="translate(0.000000,286.000000) scale(0.100000,-0.100000)"
fill="#000000" stroke="none">
<path d="M27 2833 c-4 -3 -7 -510 -7 -1125 l0 -1118 165 0 165 0 0 490 0 490
130 0 130 0 0 -490 0 -490 165 0 165 0 -2 1123 -3 1122 -162 3 -163 2 0 -465
0 -465 -130 0 -130 0 0 465 0 465 -158 0 c-87 0 -162 -3 -165 -7z"/>
<path d="M1375 2262 c-132 -46 -222 -169 -244 -335 -14 -100 -14 -908 -1
-1002 21 -140 104 -264 217 -321 55 -27 65 -29 178 -29 110 0 124 2 176 28 31
15 78 50 103 77 87 93 116 192 116 398 l0 112 -145 0 -145 0 0 -116 c0 -178
-27 -234 -110 -234 -30 0 -44 6 -64 30 -39 47 -46 90 -46 303 l0 197 255 0
255 0 0 263 c0 146 -5 289 -11 322 -25 135 -101 240 -212 291 -54 25 -76 29
-167 32 -80 2 -117 -2 -155 -16z m194 -256 c47 -25 55 -56 59 -233 l4 -163
-112 0 -111 0 3 153 c2 128 6 158 23 192 30 60 79 79 134 51z"/>
<path d="M2484 2244 c-32 -19 -70 -46 -85 -60 -14 -13 -28 -24 -32 -24 -4 0
-7 23 -7 50 l0 50 -155 0 -155 0 0 -1120 0 -1120 155 0 155 0 0 335 c0 184 3
335 6 335 3 0 24 -16 47 -35 87 -75 187 -103 264 -74 38 14 91 66 115 114 47
90 48 106 48 730 0 502 -2 600 -16 650 -21 85 -58 142 -112 176 -38 24 -57 29
-107 29 -52 0 -70 -5 -121 -36z m33 -284 c10 -19 13 -146 13 -540 0 -577 2
-560 -67 -560 -27 0 -43 8 -69 34 l-34 34 0 497 c0 320 4 503 10 515 28 52
124 65 147 20z"/>
<path d="M3218 2262 c-108 -39 -188 -127 -230 -252 -21 -62 -22 -85 -26 -524
-2 -304 0 -487 8 -545 20 -154 96 -272 214 -334 59 -31 65 -32 181 -32 107 1
126 3 175 26 105 49 178 148 205 276 8 38 15 123 15 191 l0 122 -145 0 -145 0
0 -116 c0 -64 -5 -134 -12 -156 -33 -112 -164 -100 -197 18 -6 22 -11 125 -11
237 l0 197 255 0 255 0 0 273 c0 298 -8 359 -57 450 -40 72 -117 138 -194 165
-80 28 -218 30 -291 4z m187 -252 c50 -19 65 -75 65 -247 l0 -153 -111 0 -111
0 4 153 c2 128 6 158 23 192 29 58 73 76 130 55z"/>
<path d="M4378 2256 c-72 -29 -133 -78 -158 -125 l-19 -36 -1 83 0 82 -155 0
-155 0 0 -835 0 -835 155 0 155 0 0 600 c0 656 -1 641 58 703 40 42 85 57 173
57 l79 0 0 165 0 165 -37 0 c-21 0 -64 -11 -95 -24z"/>
</g>
</svg>
